<?xml version="1.0" encoding="UTF-8"?>
<!DOCTYPE svg  PUBLIC '-//W3C//DTD SVG 1.1//EN'  'http://www.w3.org/Graphics/SVG/1.1/DTD/svg11.dtd'>
<svg enable-background="new 0 0 51.8 37" version="1.1" viewBox="0 0 51.8 37" xml:space="preserve" xmlns="http://www.w3.org/2000/svg" xmlns:xlink="http://www.w3.org/1999/xlink">
<symbol id="f" viewBox="0 -19.3 16.358 19.3">
		<path d="m13.8-8.5c0.4 3.3-0.233 6.133-1.9 8.5 1.434-1.4 2.583-3.317 3.45-5.75 0.833-2.367 1.15-4.483 0.95-6.35-0.433-4.333-2.816-6.7-7.15-7.1-0.1-0.066-0.267-0.1-0.5-0.1h-1.1c-0.233 0-0.4 0.033-0.5 0.1-4.033 0.4-6.383 2.467-7.05 6.2 0.833-1.6 2.317-2.617 4.45-3.05 2.167-0.467 4.1-0.167 5.8 0.9 1.967 1.2 3.15 3.417 3.55 6.65z" clip-rule="evenodd" fill-rule="evenodd"/>
</symbol>
		<radialGradient id="d" cx="7.0288" cy="-.3569" r="17.498" gradientTransform="matrix(.8209 .9559 .9559 -.8209 .6827 -.6363)" gradientUnits="userSpaceOnUse">
		<stop stop-color="#C7FFF2" offset="0"/>
		<stop stop-color="#5FB9F9" offset="1"/>
	</radialGradient>
	<path d="m2.583 6.313c2.227-4.2 4.83-6.3 7.813-6.3 2.94 0 5.522 2.1 7.749 6.3 2.058 3.948 2.919 7.665 2.583 11.151-0.546 5.46-3.549 8.441-9.009 8.946-0.125 0.083-0.336 0.125-0.63 0.125h-1.387c-0.294 0-0.504-0.042-0.63-0.125-5.46-0.505-8.463-3.486-9.009-8.946-0.336-3.528 0.504-7.245 2.52-11.151z" clip-rule="evenodd" fill="url(#d)" fill-rule="evenodd"/>
	<g clip-rule="evenodd" fill="url(#e)" fill-rule="evenodd">
			<radialGradient id="e" cx="6.627" cy="-.9424" r="17.404" gradientTransform="matrix(.6968 1.0498 1.0498 -.6968 1.979 -1.3633)" gradientUnits="userSpaceOnUse">
			<stop stop-color="#6EAFF9" offset="0"/>
			<stop stop-color="#4C73C7" offset="1"/>
		</radialGradient>
		<path d="m8.442 26.095h-1.449c-1.176-0.336-2.1-0.734-2.771-1.197 4.031 0.463 6.342 0.127 6.93-1.008 0.63-1.134 0.462-1.869-0.504-2.205s-2.961-0.378-5.985-0.126c-1.176 0.084-2.373 0.021-3.591-0.188-0.336-0.715-0.546-1.323-0.63-1.827 1.05 0.588 2.205 0.776 3.465 0.566 5.543-0.798 8.799-0.902 9.765-0.314 1.176 0.714 1.47 1.911 0.882 3.591-0.673 1.888-2.71 2.792-6.112 2.708z"/>
		<path d="m6.048 1.777l0.945-0.693c-0.252 1.218 0.231 1.954 1.449 2.205 0.546 0.126 1.743 0.084 3.591-0.126 1.47-0.21 3.045 0.105 4.725 0.945l1.135 1.765c-1.512-0.882-2.877-1.324-4.095-1.324-2.52 0.21-4.326 0.252-5.418 0.126-1.891-0.252-2.668-1.218-2.332-2.898z"/>
		<path d="m13.986 12.865c1.932 0.168 3.297 0.441 4.095 0.819 0.798 0.335 1.638 1.071 2.52 2.205l0.189 0.315-0.126 1.828c-1.428-1.807-2.814-2.835-4.158-3.087-0.882-0.168-2.499 0.042-4.851 0.63-2.646 0.63-4.494 0.945-5.544 0.945-2.016 0-3.255-0.021-3.717-0.063-0.924-0.127-1.722-0.463-2.394-1.009l0.252-2.205c0.923 0.63 1.868 0.987 2.835 1.071 1.47 0.168 3.318-0.063 5.543-0.693 2.31-0.588 4.096-0.84 5.356-0.756z"/>
		<path d="m2.646 13.18c-0.714-0.294-1.323-1.113-1.827-2.458l0.441-1.322c0.672 1.806 1.596 2.709 2.772 2.709 0.378 0 1.428-0.063 3.15-0.189 0.923-0.084 1.512-0.021 1.764 0.189 0.588 0.42 0 0.63-1.764 0.63-0.21 0-0.924 0.168-2.142 0.504-0.924 0.294-1.722 0.273-2.394-0.063z"/>
		<path d="m14.427 7.006c1.847 0.042 3.486 0.713 4.914 2.016l0.882 2.708c-1.554-1.386-3.003-2.205-4.347-2.457-1.26-0.251-3.339-0.273-6.237-0.063-2.52 0.169-4.222 0.022-5.103-0.44-1.008-0.462-1.596-1.386-1.764-2.772 0.504-0.966 0.966-1.701 1.386-2.205 0.252 1.974 1.638 3.066 4.158 3.276 1.722 0.168 3.759 0.147 6.111-0.063z"/>
	</g>
		<use transform="matrix(1.26 0 0 -1.26 .1499 2.2002)" y="-19.3" width="16.358" height="19.3" enable-background="new" opacity=".1914" xlink:href="#f"/>
	<path d="m6.426 4.234c1.26-0.713 1.596-0.063 1.008 1.954-0.588 1.973-1.344 2.729-2.268 2.267-0.84-0.378-1.008-1.113-0.504-2.205 0.462-0.924 1.05-1.596 1.764-2.016z" clip-rule="evenodd" fill="#fff" fill-rule="evenodd"/>
	<path d="m4.41 10.345c0.335 0.168 0.42 0.483 0.252 0.945-0.126 0.462-0.399 0.651-0.819 0.567-0.378-0.042-0.44-0.337-0.189-0.882 0.252-0.504 0.504-0.714 0.756-0.63z" clip-rule="evenodd" fill="#fff" fill-rule="evenodd"/>
</svg>
